<svg width="1139" height="292" viewBox="0 0 1139 292" fill="none" xmlns="http://www.w3.org/2000/svg">
<rect y="44" width="1139" height="248" rx="12" fill="white"/>
<rect y="44" width="1139" height="248" rx="12" fill="#C6D8D3" fill-opacity="0.3"/>
<mask id="mask0" style="mask-type:alpha" maskUnits="userSpaceOnUse" x="729" y="0" width="410" height="292">
<path fill-rule="evenodd" clip-rule="evenodd" d="M729 44L914 0L1080 18L1139 44V292H729V44Z" fill="white"/>
</mask>
<g mask="url(#mask0)">
<path d="M955.052 93H847.02L781 157.332L782.334 158.19H781.857V292H1009.92V158.19L1010 158.467L955.052 93Z" fill="#C6D8D3"/>
<path d="M942.784 18.5354L950 12.0903C944.394 11.3996 942.09 14.8137 941.148 17.5161C936.768 15.4853 932 18.1467 932 18.1467L946.439 24C945.71 21.8275 944.442 19.9318 942.784 18.5354Z" fill="#3F3D56"/>
<path d="M1076.78 35.5354L1084 29.0903C1078.39 28.3996 1076.09 31.8137 1075.15 34.5161C1070.77 32.4853 1066 35.1467 1066 35.1467L1080.44 41C1079.71 38.8275 1078.44 36.9318 1076.78 35.5354Z" fill="#3F3D56"/>
<path d="M1044.78 79.5354L1052 73.0903C1046.39 72.3996 1044.09 75.8137 1043.15 78.5161C1038.77 76.4853 1034 79.1467 1034 79.1467L1048.44 85C1047.71 82.8275 1046.44 80.9318 1044.78 79.5354Z" fill="#3F3D56"/>
<rect x="966" y="86" width="12" height="42" fill="#3F3D56"/>
<rect x="1091" y="138" width="12" height="42" fill="#3F3D56"/>
<rect x="1091" y="134" width="12" height="42" fill="#3F3D56"/>
<path d="M1122 188.63L1079.46 138H996.003L945 187.785L946.03 188.448H945.662V292H1121.85V188.448L1122 188.63Z" fill="#C6D8D3"/>
<path d="M1079.3 137L1027 198.613V292H1121V186.893L1079.3 137Z" fill="#B7CDC7"/>
<path d="M956.317 93L889 172.104V292H1010V157.056L956.317 93Z" fill="#B7CDC7"/>
<path d="M834 291C834 291 834.326 283.163 841 284.074L834 291Z" fill="#E6E6E6"/>
<circle cx="832.5" cy="280.5" r="3.5" fill="#2AC084"/>
<rect x="831" y="285" width="1" height="7" fill="#E6E6E6"/>
<path d="M862 291C862 291 862.326 283.163 869 284.074L862 291Z" fill="#E6E6E6"/>
<circle cx="858.5" cy="280.5" r="3.5" fill="#2AC084"/>
<rect x="858" y="285" width="1" height="7" fill="#E6E6E6"/>
<path d="M1016 291C1016 291 1016.33 283.163 1023 284.074L1016 291Z" fill="#E6E6E6"/>
<circle cx="1015.5" cy="280.5" r="3.5" fill="#2AC084"/>
<rect x="1015" y="285" width="1" height="7" fill="#E6E6E6"/>
<path d="M797 291C797 291 797.326 283.163 804 284.074L797 291Z" fill="#E6E6E6"/>
<circle cx="794.5" cy="280.5" r="3.5" fill="#2AC084"/>
<rect x="796" y="285" width="1" height="7" fill="#E6E6E6"/>
<path d="M1088.61 115.559C1088.61 115.621 1088.61 115.683 1088.61 115.746C1088.61 118.058 1089.52 120.273 1091.14 121.883C1091.26 122.157 1091.4 122.424 1091.56 122.682C1090.98 124.471 1090.69 126.345 1090.7 128.229C1090.7 134.73 1093.97 140 1098 140C1102.03 140 1105.3 134.73 1105.3 128.229C1105.31 126.821 1105.15 125.418 1104.83 124.048C1107.4 121.19 1107.77 116.908 1105.73 113.63C1107.99 115.66 1111.14 116.283 1113.98 115.26C1116.82 114.238 1118.9 111.729 1119.43 108.692C1119.96 105.655 1118.86 102.561 1116.54 100.594C1120.51 99.0914 1122.76 94.7818 1121.77 90.5629C1120.78 86.3441 1116.87 83.5501 1112.67 84.0599C1108.47 84.5698 1105.3 88.2222 1105.3 92.561C1105.3 92.6863 1105.31 92.8107 1105.31 92.9347C1102.99 92.2082 1100.48 92.5511 1098.43 93.8744C1096.37 95.1976 1094.98 97.3706 1094.62 99.8286C1091.77 98.0928 1088.2 98.2449 1085.5 100.216C1082.81 102.188 1081.5 105.606 1082.18 108.929C1082.85 112.253 1085.38 114.854 1088.61 115.559V115.559Z" fill="#C6D8D3"/>
<path d="M829 148.747L818.709 163.744L817.714 134L816.483 177.916L807 164.095L816.398 180.951L813.286 292H823L818.818 167.008L829 148.747Z" fill="white"/>
<path d="M829 148.747L818.709 163.744L817.714 134L816.483 177.916L807 164.095L816.398 180.951L813.286 292H823L818.818 167.008L829 148.747Z" fill="#C6D8D3" fill-opacity="0.3"/>
<path d="M781 105.227L766.5 124.78L765.097 86L763.363 143.258L750 125.238L763.243 147.215L758.857 292H772.545L766.653 129.035L781 105.227Z" fill="#3F3D56"/>
<path d="M959.936 62.1948C959.934 62.268 959.93 62.3407 959.93 62.4143C959.927 65.1403 961.023 67.7507 962.967 69.6475C963.118 69.9704 963.285 70.2849 963.468 70.5899C962.772 72.6977 962.423 74.9061 962.434 77.1275C962.434 84.7891 966.358 91 971.199 91C976.039 91 979.963 84.7891 979.963 77.1275C979.967 75.4679 979.775 73.8137 979.392 72.1996C982.483 68.8306 982.926 63.7843 980.47 59.9212C983.188 62.3126 986.974 63.0461 990.379 61.841C993.784 60.636 996.281 57.679 996.917 54.1006C997.553 50.5223 996.228 46.8762 993.449 44.5567C998.212 42.7863 1000.91 37.7071 999.722 32.7349C998.536 27.7626 993.845 24.4697 988.804 25.0706C983.762 25.6715 979.964 29.9762 979.963 35.0898C979.963 35.2375 979.968 35.384 979.974 35.5302C977.192 34.6739 974.177 35.0781 971.713 36.6376C969.249 38.1972 967.58 40.7582 967.139 43.6552C963.725 41.6094 959.434 41.7886 956.2 44.112C952.967 46.4354 951.401 50.464 952.21 54.381C953.02 58.298 956.05 61.3634 959.936 62.1948Z" fill="#C6D8D3"/>
<rect x="905" y="185" width="25" height="26" fill="#3F3D56"/>
<rect x="905" y="222" width="25" height="26" fill="#3F3D56"/>
<rect x="905" y="185" width="25" height="26" fill="white"/>
<rect x="905" y="185" width="25" height="26" fill="#C6D8D3" fill-opacity="0.3"/>
<rect x="905" y="222" width="25" height="26" fill="white"/>
<rect x="905" y="222" width="25" height="26" fill="#C6D8D3" fill-opacity="0.3"/>
<rect x="940" y="185" width="25" height="26" fill="#3F3D56"/>
<rect x="940" y="222" width="25" height="26" fill="#3F3D56"/>
<rect x="940" y="185" width="25" height="26" fill="white"/>
<rect x="940" y="185" width="25" height="26" fill="#C6D8D3" fill-opacity="0.3"/>
<rect x="940" y="222" width="25" height="26" fill="white"/>
<rect x="940" y="222" width="25" height="26" fill="#C6D8D3" fill-opacity="0.3"/>
<rect x="972" y="185" width="25" height="26" fill="#3F3D56"/>
<rect x="972" y="222" width="25" height="26" fill="#3F3D56"/>
<rect x="972" y="185" width="25" height="26" fill="white"/>
<rect x="972" y="185" width="25" height="26" fill="#C6D8D3" fill-opacity="0.3"/>
<rect x="972" y="222" width="25" height="26" fill="white"/>
<rect x="972" y="222" width="25" height="26" fill="#C6D8D3" fill-opacity="0.3"/>
<rect x="1053" y="239" width="18" height="18" fill="#3F3D56"/>
<rect x="1053" y="211" width="18" height="18" fill="#3F3D56"/>
<rect x="1053" y="239" width="18" height="18" fill="white"/>
<rect x="1053" y="239" width="18" height="18" fill="#C6D8D3" fill-opacity="0.3"/>
<rect x="1053" y="211" width="18" height="18" fill="white"/>
<rect x="1053" y="211" width="18" height="18" fill="#C6D8D3" fill-opacity="0.3"/>
<rect x="1080" y="239" width="18" height="18" fill="#3F3D56"/>
<rect x="1080" y="211" width="18" height="18" fill="#3F3D56"/>
<rect x="1080" y="239" width="18" height="18" fill="white"/>
<rect x="1080" y="239" width="18" height="18" fill="#C6D8D3" fill-opacity="0.3"/>
<rect x="1080" y="211" width="18" height="18" fill="white"/>
<rect x="1080" y="211" width="18" height="18" fill="#C6D8D3" fill-opacity="0.3"/>
</g>
</svg>
