<svg width="40" height="40" viewBox="0 0 40 40" fill="none" xmlns="http://www.w3.org/2000/svg">
<rect width="40" height="40" rx="12" fill="#D1443B"/>
<mask id="mask0" style="mask-type:alpha" maskUnits="userSpaceOnUse" x="0" y="0" width="40" height="40">
<rect width="40" height="40" rx="12" fill="white"/>
</mask>
<g mask="url(#mask0)">
<g clip-path="url(#clip0)">
<path d="M34.8363 31.2601H32.754V28.5928C33.5349 28.2928 34.1205 27.2592 34.1205 26.0589C34.1205 24.5919 33.3071 23.425 32.266 23.425C31.2574 23.425 30.4114 24.5919 30.4114 26.0589C30.4114 27.2592 30.9971 28.2928 31.7779 28.5928V31.2601H28.622V6.08782C28.622 5.72107 28.3617 5.45435 28.0038 5.45435H19.3818C19.0239 5.45435 18.7636 5.72107 18.7636 6.08782V11.189L20.3578 10.9222C20.4555 10.9222 20.5531 10.8889 20.6507 10.8889C21.6918 10.8889 22.5703 11.7557 22.5703 12.856V31.2601H21.2689V12.8893C21.2689 12.4892 20.911 12.1892 20.5531 12.2559L11.9311 13.6895C11.6382 13.7562 11.4105 13.9896 11.4105 14.323V31.2601H8.2545V28.5928C9.03536 28.2928 9.62101 27.2592 9.62101 26.0589C9.62101 24.5919 8.80761 23.425 7.76646 23.425C6.72531 23.425 5.91192 24.5919 5.91192 26.0589C5.91192 27.2592 6.49756 28.2928 7.27842 28.5928V31.2601H5.16359C4.8057 31.2601 4.54541 31.5601 4.54541 31.8936V32.0936C4.54541 32.4603 4.83823 32.7271 5.16359 32.7271H34.8363C35.1942 32.7271 35.4545 32.427 35.4545 32.0936V31.8936C35.4545 31.5601 35.1617 31.2601 34.8363 31.2601ZM24.6851 7.75486C24.6851 7.65483 24.7827 7.55481 24.8803 7.55481H26.377C26.4746 7.55481 26.5722 7.65483 26.5722 7.75486V9.28853C26.5722 9.38855 26.4746 9.48858 26.377 9.48858H24.8803C24.7827 9.48858 24.6851 9.38855 24.6851 9.28853V7.75486ZM24.6851 11.9224C24.6851 11.8224 24.7827 11.7224 24.8803 11.7224H26.377C26.4746 11.7224 26.5722 11.8224 26.5722 11.9224V13.4228C26.5722 13.5228 26.4746 13.6228 26.377 13.6228H24.8803C24.7827 13.6228 24.6851 13.5228 24.6851 13.4228V11.9224ZM24.6851 16.0567C24.6851 15.9567 24.7827 15.8567 24.8803 15.8567H26.377C26.4746 15.8567 26.5722 15.9567 26.5722 16.0567V17.5904C26.5722 17.6904 26.4746 17.7904 26.377 17.7904H24.8803C24.7827 17.7904 24.6851 17.6904 24.6851 17.5904V16.0567ZM24.6851 20.2243C24.6851 20.1243 24.7827 20.0242 24.8803 20.0242H26.377C26.4746 20.0242 26.5722 20.1243 26.5722 20.2243V21.758C26.5722 21.858 26.4746 21.958 26.377 21.958H24.8803C24.7827 21.958 24.6851 21.858 24.6851 21.758V20.2243ZM24.6851 24.3919C24.6851 24.2919 24.7827 24.1918 24.8803 24.1918H26.377C26.4746 24.1918 26.5722 24.2919 26.5722 24.3919V25.9256C26.5722 26.0256 26.4746 26.1256 26.377 26.1256H24.8803C24.7827 26.1256 24.6851 26.0256 24.6851 25.9256V24.3919ZM24.6851 28.5595C24.6851 28.4595 24.7827 28.3594 24.8803 28.3594H26.377C26.4746 28.3594 26.5722 28.4595 26.5722 28.5595V30.0932C26.5722 30.1932 26.4746 30.2932 26.377 30.2932H24.8803C24.7827 30.2932 24.6851 30.1932 24.6851 30.0932V28.5595ZM22.4727 9.48858H20.976C20.8784 9.48858 20.7808 9.38855 20.7808 9.28853V7.75486C20.7808 7.65483 20.8784 7.55481 20.976 7.55481H22.4727C22.5703 7.55481 22.6679 7.65483 22.6679 7.75486V9.28853C22.6679 9.38855 22.5703 9.48858 22.4727 9.48858ZM17.332 16.0567C17.332 15.9567 17.4296 15.8567 17.5272 15.8567H19.0239C19.1215 15.8567 19.2191 15.9567 19.2191 16.0567V17.5904C19.2191 17.6904 19.1215 17.7904 19.0239 17.7904H17.5272C17.4296 17.7904 17.332 17.6904 17.332 17.5904V16.0567ZM17.332 20.2243C17.332 20.1243 17.4296 20.0242 17.5272 20.0242H19.0239C19.1215 20.0242 19.2191 20.1243 19.2191 20.2243V21.758C19.2191 21.858 19.1215 21.958 19.0239 21.958H17.5272C17.4296 21.958 17.332 21.858 17.332 21.758V20.2243ZM17.332 24.3919C17.332 24.2919 17.4296 24.1918 17.5272 24.1918H19.0239C19.1215 24.1918 19.2191 24.2919 19.2191 24.3919V25.9256C19.2191 26.0256 19.1215 26.1256 19.0239 26.1256H17.5272C17.4296 26.1256 17.332 26.0256 17.332 25.9256V24.3919ZM17.332 28.5595C17.332 28.4595 17.4296 28.3594 17.5272 28.3594H19.0239C19.1215 28.3594 19.2191 28.4595 19.2191 28.5595V30.0932C19.2191 30.1932 19.1215 30.2932 19.0239 30.2932H17.5272C17.4296 30.2932 17.332 30.1932 17.332 30.0932V28.5595ZM13.3952 16.0567C13.3952 15.9567 13.4928 15.8567 13.5904 15.8567H15.087C15.1846 15.8567 15.2823 15.9567 15.2823 16.0567V17.5904C15.2823 17.6904 15.1846 17.7904 15.087 17.7904H13.5904C13.4928 17.7904 13.3952 17.6904 13.3952 17.5904V16.0567ZM13.3952 20.2243C13.3952 20.1243 13.4928 20.0242 13.5904 20.0242H15.087C15.1846 20.0242 15.2823 20.1243 15.2823 20.2243V21.758C15.2823 21.858 15.1846 21.958 15.087 21.958H13.5904C13.4928 21.958 13.3952 21.858 13.3952 21.758V20.2243ZM13.3952 24.3919C13.3952 24.2919 13.4928 24.1918 13.5904 24.1918H15.087C15.1846 24.1918 15.2823 24.2919 15.2823 24.3919V25.9256C15.2823 26.0256 15.1846 26.1256 15.087 26.1256H13.5904C13.4928 26.1256 13.3952 26.0256 13.3952 25.9256V24.3919ZM13.3952 28.5595C13.3952 28.4595 13.4928 28.3594 13.5904 28.3594H15.087C15.1846 28.3594 15.2823 28.4595 15.2823 28.5595V30.0932C15.2823 30.1932 15.1846 30.2932 15.087 30.2932H13.5904C13.4928 30.2932 13.3952 30.1932 13.3952 30.0932V28.5595Z" fill="white"/>
</g>
</g>
<defs>
<clipPath id="clip0">
<rect width="90.9091" height="90.9091" fill="white" transform="translate(-10.9091 -5.45459)"/>
</clipPath>
</defs>
</svg>
