<svg width="78" height="78" viewBox="0 0 78 78" fill="none" xmlns="http://www.w3.org/2000/svg">
<path d="M62.4512 49.7847C61.6103 47.6885 60.2233 45.8262 58.4573 44.2943C58.4805 44.1565 58.5 44.0176 58.5 43.875V36.3163C64.0563 35.1841 68.25 30.2603 68.25 24.375V9.75C68.25 8.4045 67.158 7.3125 65.8125 7.3125H46.3125C44.967 7.3125 43.875 8.4045 43.875 9.75V24.375C43.875 30.2603 48.0687 35.1841 53.625 36.3163V41.3473C51.3898 40.432 48.9072 39.9153 46.3125 39.9153C42.7928 39.9153 39.3961 40.8744 36.5625 42.5673V34.125C36.5625 30.2859 34.7258 26.6723 31.6875 24.386V14.625C31.6875 13.2795 30.5955 12.1875 29.25 12.1875H19.5C18.1545 12.1875 17.0625 13.2795 17.0625 14.625V24.386C14.0242 26.6723 12.1875 30.2847 12.1875 34.125V51.1875C12.1875 51.3313 12.2058 51.4715 12.2302 51.6104C9.25275 53.3898 7.3125 56.2209 7.3125 59.4165C7.3125 64.7924 12.7798 69.1665 19.5 69.1665H60.9375C66.3134 69.1665 70.6875 64.7924 70.6875 59.4165C70.6875 54.5549 67.1105 50.5135 62.4512 49.7847ZM48.75 24.375V12.1875H63.375V24.375C63.375 28.4078 60.0953 31.6875 56.0625 31.6875C52.0297 31.6875 48.75 28.4078 48.75 24.375ZM28.0312 45.1852C25.1952 45.7945 22.6553 47.1132 20.7188 48.9487V35.3438H28.0312V45.1852ZM17.0625 34.125C17.0625 31.5315 18.4641 29.1074 20.7212 27.7997C21.4744 27.3634 21.9375 26.559 21.9375 25.69V17.0625H26.8125V25.69C26.8125 26.559 27.2756 27.3634 28.0288 27.7985C30.2859 29.1074 31.6875 31.5315 31.6875 34.125V44.7976C31.2768 44.7964 30.8734 44.8268 30.4688 44.8561V34.125C30.4688 33.4522 29.9228 32.9062 29.25 32.9062H19.5C18.8273 32.9062 18.2812 33.4522 18.2812 34.125V49.7165C17.8693 49.7482 17.4622 49.7969 17.0625 49.8627V34.125ZM60.9375 64.2915H19.5C15.5366 64.2915 12.1875 62.0588 12.1875 59.4165C12.1875 56.9132 15.1942 54.7804 18.8809 54.5634C23.3049 54.784 26.8125 57.419 26.8125 60.6353C26.8125 61.3092 27.3585 61.854 28.0312 61.854C28.704 61.854 29.25 61.3092 29.25 60.6353C29.25 57.3909 26.9076 54.5647 23.4707 53.1229C25.1782 51.0839 28.0239 49.7981 31.2195 49.6958C36.9172 49.998 41.4375 53.692 41.4375 58.1978C41.4375 58.8717 41.9823 59.4165 42.6562 59.4165C43.3302 59.4165 43.875 58.8717 43.875 58.1978C43.875 54.0162 41 50.377 36.7831 48.5258C38.9817 46.3003 42.2455 44.9487 45.758 44.8183C52.8401 45.1047 58.5 49.8944 58.5 55.7603C58.5 56.4342 59.0448 56.979 59.7188 56.979C60.3927 56.979 60.9375 56.4342 60.9375 55.7603C60.9375 55.3507 60.9082 54.9461 60.8644 54.5464C60.8936 54.5439 60.929 54.5415 60.9375 54.5415C63.6261 54.5415 65.8125 56.7279 65.8125 59.4165C65.8125 62.1051 63.6261 64.2915 60.9375 64.2915Z" fill="#2AC084"/>
<path d="M62.1562 24.375V14.625C62.1562 13.9523 61.6115 13.4062 60.9375 13.4062C60.2635 13.4062 59.7188 13.9523 59.7188 14.625V24.375C59.7188 26.3908 58.0783 28.0312 56.0625 28.0312C55.3885 28.0312 54.8438 28.5773 54.8438 29.25C54.8438 29.9228 55.3885 30.4688 56.0625 30.4688C59.4226 30.4688 62.1562 27.7351 62.1562 24.375Z" fill="#2AC084"/>
</svg>
