<svg width="67" height="41" viewBox="0 0 67 41" fill="none" xmlns="http://www.w3.org/2000/svg">
<path d="M20.4297 16.7148C19.5614 16.7148 18.8574 17.4181 18.8574 18.2864V21.4295C18.8574 22.2971 19.5614 23.0011 20.4297 23.0011C21.2973 23.0011 22.0013 22.2978 22.0013 21.4295V18.2864C22.0006 17.4181 21.2965 16.7148 20.4297 16.7148Z" fill="#2AC084"/>
<path d="M20.4297 8.07227C19.5614 8.07227 18.8574 8.77555 18.8574 9.64383V12.787C18.8574 13.6545 19.5614 14.3585 20.4297 14.3585C21.2973 14.3585 22.0013 13.6552 22.0013 12.787V9.64383C22.0006 8.77628 21.2965 8.07227 20.4297 8.07227Z" fill="#2AC084"/>
<path d="M20.4297 25.3584C19.5614 25.3584 18.8574 26.0617 18.8574 26.93V30.0731C18.8574 30.9406 19.5614 31.6447 20.4297 31.6447C21.2973 31.6447 22.0013 30.9414 22.0013 30.0731V26.93C22.0006 26.0617 21.2965 25.3584 20.4297 25.3584Z" fill="#2AC084"/>
<path d="M63.6444 16.262C64.9461 16.262 66.0013 15.2067 66.0013 13.905V2.57182C66.0013 1.27086 64.9468 0.214844 63.6444 0.214844H2.35698C1.05529 0.214844 0 1.27086 0 2.57182V13.9043C0 15.2059 1.05455 16.2612 2.35698 16.2612C3.46067 16.2612 5.28671 17.6297 5.28671 19.1902C5.28671 20.7508 3.46067 22.12 2.35698 22.12C1.05529 22.12 0 23.176 0 24.4769V37.9295C0 39.2304 1.05455 40.2865 2.35698 40.2865H63.6444C64.9461 40.2865 66.0013 39.2304 66.0013 37.9295V24.4769C66.0013 23.176 64.9468 22.12 63.6444 22.12C62.5407 22.12 60.7146 20.7508 60.7146 19.1902C60.7146 17.6304 62.5414 16.262 63.6444 16.262ZM61.2874 12.0034C58.5058 13.0572 56.0007 15.83 56.0007 19.191C56.0007 22.5526 58.5058 25.3247 61.2874 26.3792V35.5732H22.0004C22.0004 34.7049 21.2964 34.0017 20.4289 34.0017C19.5606 34.0017 18.8566 34.7049 18.8566 35.5732H4.7147V26.3785C7.49629 25.324 10.0014 22.5519 10.0014 19.1902C10.0014 15.8293 7.49629 13.0565 4.7147 12.0027V4.92881H19.0759C19.3479 5.39668 19.8495 5.71422 20.4296 5.71422C21.0097 5.71422 21.5106 5.39668 21.7834 4.92881H61.2874V12.0034Z" fill="#2AC084"/>
<path d="M31.43 16.7149H47.1449C48.4466 16.7149 49.5019 15.6589 49.5019 14.358C49.5019 13.057 48.4473 12.001 47.1449 12.001H31.43C30.1276 12.001 29.0723 13.057 29.0723 14.358C29.0723 15.6589 30.1268 16.7149 31.43 16.7149Z" fill="#2AC084"/>
<path d="M47.1439 21.4297H31.4297C30.5614 21.4297 29.8574 22.133 29.8574 23.0013C29.8574 23.8695 30.5614 24.5728 31.4297 24.5728H47.1446C48.0122 24.5728 48.7162 23.8695 48.7162 23.0013C48.7155 22.133 48.0115 21.4297 47.1439 21.4297Z" fill="#2AC084"/>
<path d="M47.1439 26.9297H31.4297C30.5614 26.9297 29.8574 27.633 29.8574 28.5013C29.8574 29.3695 30.5614 30.0728 31.4297 30.0728H47.1446C48.0122 30.0728 48.7162 29.3695 48.7162 28.5013C48.7155 27.633 48.0115 26.9297 47.1439 26.9297Z" fill="#2AC084"/>
</svg>
