<svg width="62" height="64" viewBox="0 0 62 64" fill="none" xmlns="http://www.w3.org/2000/svg">
<path d="M55.6349 6.95632H51.5525V3.55433C51.5525 1.43754 49.6626 0.152344 47.5458 0.152344H43.0854C40.9686 0.152344 39.4566 1.43754 39.4566 3.55433V6.95632H22.8247V3.55433C22.8247 1.43754 21.3127 0.152344 19.1959 0.152344H14.7355C12.6187 0.152344 10.7287 1.43754 10.7287 3.55433V6.95632H6.64632C5.78031 6.93513 4.91911 7.09135 4.11572 7.41537C3.31233 7.73939 2.58372 8.22435 1.97473 8.84043C1.36573 9.45651 0.889221 10.1907 0.574511 10.9978C0.259802 11.8048 0.113547 12.6678 0.144745 13.5335V57.2301C0.144745 61.0101 2.86633 64.4121 6.64632 64.4121H55.6349C59.4149 64.4121 62.1365 61.0101 62.1365 57.2301V13.5335C62.1677 12.6678 62.0214 11.8048 61.7067 10.9978C61.392 10.1907 60.9155 9.45651 60.3065 8.84043C59.6975 8.22435 58.9689 7.73939 58.1655 7.41537C57.3621 7.09135 56.5009 6.93513 55.6349 6.95632ZM43.9926 4.68833H47.0166V11.4923H43.9926V4.68833ZM15.2647 4.68833H18.2887V11.4923H15.2647V4.68833ZM6.64632 11.4923H10.7287V12.3995C10.7479 12.9027 10.8675 13.397 11.0804 13.8534C11.2933 14.3097 11.5953 14.719 11.9685 15.057C12.3418 15.3951 12.7788 15.6551 13.254 15.8219C13.7291 15.9887 14.2328 16.0589 14.7355 16.0283H19.1959C19.6781 16.0497 20.1596 15.9706 20.6095 15.7958C21.0595 15.621 21.4682 15.3545 21.8095 15.0132C22.1509 14.6718 22.4174 14.2632 22.5922 13.8132C22.767 13.3632 22.8461 12.8817 22.8247 12.3995V11.4923H39.4566V12.3995C39.4351 12.8817 39.5143 13.3632 39.6891 13.8132C39.8638 14.2632 40.1304 14.6718 40.4717 15.0132C40.8131 15.3545 41.2217 15.621 41.6717 15.7958C42.1217 15.9706 42.6031 16.0497 43.0854 16.0283H47.5458C48.0484 16.0589 48.5521 15.9887 49.0273 15.8219C49.5024 15.6551 49.9395 15.3951 50.3127 15.057C50.686 14.719 50.9879 14.3097 51.2009 13.8534C51.4138 13.397 51.5333 12.9027 51.5525 12.3995V11.4923H55.6349C55.9059 11.4673 56.179 11.5037 56.4341 11.5985C56.6891 11.6934 56.9195 11.8445 57.1083 12.0405C57.297 12.2365 57.4393 12.4725 57.5245 12.7309C57.6097 12.9894 57.6357 13.2637 57.6005 13.5335V21.3203H4.68073V13.5335C4.64557 13.2637 4.67155 12.9894 4.75676 12.7309C4.84196 12.4725 4.98421 12.2365 5.17297 12.0405C5.36172 11.8445 5.59215 11.6934 5.84719 11.5985C6.10223 11.5037 6.37535 11.4673 6.64632 11.4923ZM55.6349 59.8761H6.64632C5.36112 59.8761 4.68073 58.5153 4.68073 57.2301V25.8562H57.6005V57.2301C57.6005 58.5153 56.9201 59.8761 55.6349 59.8761Z" fill="#2AC084"/>
<path d="M42.783 37.1206L35.6011 36.0622L32.4259 29.5606C32.2401 29.1772 31.9502 28.8538 31.5892 28.6275C31.2282 28.4013 30.8107 28.2812 30.3847 28.2812C29.9586 28.2812 29.5412 28.4013 29.1802 28.6275C28.8192 28.8538 28.5292 29.1772 28.3435 29.5606L25.1683 36.0622L17.9863 37.1206C17.5678 37.1789 17.1739 37.353 16.8491 37.6231C16.5242 37.8933 16.2813 38.2489 16.1476 38.6497C16.014 39.0506 15.995 39.4808 16.0928 39.8918C16.1906 40.3029 16.4013 40.6785 16.7011 40.9762L21.9175 45.9658L20.7079 53.1478C20.6248 53.5544 20.6588 53.9764 20.806 54.3645C20.9532 54.7526 21.2076 55.0909 21.5395 55.3401C21.8835 55.5954 22.2909 55.7516 22.7174 55.7915C23.1439 55.8315 23.5732 55.7539 23.9587 55.5669L30.3847 52.165L36.8106 55.5669C37.1981 55.7459 37.6259 55.8191 38.0508 55.7793C38.4757 55.7395 38.8824 55.588 39.2298 55.3401C39.5618 55.0909 39.8161 54.7526 39.9634 54.3645C40.1106 53.9764 40.1446 53.5544 40.0614 53.1478L38.8518 45.9658L44.0682 40.9762C44.368 40.6785 44.5787 40.3029 44.6765 39.8918C44.7743 39.4808 44.7553 39.0506 44.6217 38.6497C44.4881 38.2489 44.2451 37.8933 43.9203 37.6231C43.5954 37.353 43.2015 37.1789 42.783 37.1206ZM34.8451 43.5466C34.5865 43.8145 34.3912 44.1369 34.2735 44.4901C34.1558 44.8433 34.1186 45.2183 34.1647 45.5878L34.8451 49.3678L31.4431 47.629C31.1239 47.4355 30.7579 47.3331 30.3847 47.3331C30.0115 47.3331 29.6454 47.4355 29.3263 47.629L25.9243 49.3678L26.6047 45.5878C26.6508 45.2183 26.6136 44.8433 26.4958 44.4901C26.3781 44.1369 26.1828 43.8145 25.9243 43.5466L23.2027 40.9006L26.9827 40.3714C27.343 40.3073 27.6825 40.1569 27.9721 39.9331C28.2618 39.7093 28.4929 39.4187 28.6459 39.0862L30.3847 35.6842L32.1235 39.0862C32.2764 39.4187 32.5076 39.7093 32.7972 39.9331C33.0868 40.1569 33.4263 40.3073 33.7867 40.3714L37.5666 40.9006L34.8451 43.5466Z" fill="#2AC084"/>
</svg>
