<svg width="181" height="125" viewBox="0 0 181 125" fill="none" xmlns="http://www.w3.org/2000/svg">
<g clip-path="url(#clip0_2821:33930)">
<path d="M174.613 124C185.347 97.1844 182.1 67.2418 168.256 44.2452L23.3348 64.2955L162.215 35.3746C103.683 -37.5584 -10.2415 10.8172 0.740232 102.9L174.613 124Z" fill="white"/>
<path d="M174.613 124C185.347 97.1844 182.1 67.2418 168.256 44.2452L23.3348 64.2955L162.215 35.3746C103.683 -37.5584 -10.2415 10.8172 0.740232 102.9L174.613 124Z" fill="#3A3335" fill-opacity="0.04"/>
<g filter="url(#filter0_d_2821:33930)">
<circle cx="89.5" cy="88.5" r="36.5" fill="white"/>
</g>
<path d="M72.16 99H106.83L89.4952 69.5455L72.16 99ZM87.5776 87.929L87.3986 79.3636H91.5918L91.4128 87.929H87.5776ZM89.4952 95.5611C88.1273 95.5611 87.0151 94.4489 87.0151 93.081C87.0151 91.7131 88.1273 90.5881 89.4952 90.5881C90.8631 90.5881 91.9753 91.7131 91.9753 93.081C91.9753 94.4489 90.8631 95.5611 89.4952 95.5611Z" fill="#F24A4A"/>
</g>
<defs>
<filter id="filter0_d_2821:33930" x="29" y="48" width="121" height="121" filterUnits="userSpaceOnUse" color-interpolation-filters="sRGB">
<feFlood flood-opacity="0" result="BackgroundImageFix"/>
<feColorMatrix in="SourceAlpha" type="matrix" values="0 0 0 0 0 0 0 0 0 0 0 0 0 0 0 0 0 0 127 0" result="hardAlpha"/>
<feOffset dy="20"/>
<feGaussianBlur stdDeviation="12"/>
<feColorMatrix type="matrix" values="0 0 0 0 0.6 0 0 0 0 0.607843 0 0 0 0 0.658824 0 0 0 0.15 0"/>
<feBlend mode="normal" in2="BackgroundImageFix" result="effect1_dropShadow_2821:33930"/>
<feBlend mode="normal" in="SourceGraphic" in2="effect1_dropShadow_2821:33930" result="shape"/>
</filter>
<clipPath id="clip0_2821:33930">
<rect width="181" height="125" fill="white"/>
</clipPath>
</defs>
</svg>
