<svg width="168" height="44" viewBox="0 0 168 44" fill="none" xmlns="http://www.w3.org/2000/svg">
<rect width="44" height="44" rx="12" fill="#D1443B"/>
<mask id="mask0" style="mask-type:alpha" maskUnits="userSpaceOnUse" x="0" y="0" width="44" height="44">
<rect width="44" height="44" rx="12" fill="white"/>
</mask>
<g mask="url(#mask0)">
<g clip-path="url(#clip0)">
<path d="M38.32 34.3862H36.0295V31.4522C36.8884 31.1221 37.5326 29.9852 37.5326 28.6649C37.5326 27.0512 36.6379 25.7676 35.4926 25.7676C34.3832 25.7676 33.4526 27.0512 33.4526 28.6649C33.4526 29.9852 34.0968 31.1221 34.9558 31.4522V34.3862H31.4842V6.6967C31.4842 6.29328 31.1979 5.99988 30.8042 5.99988H21.32C20.9263 5.99988 20.64 6.29328 20.64 6.6967V12.3079L22.3937 12.0145C22.5011 12.0145 22.6084 11.9779 22.7158 11.9779C23.8611 11.9779 24.8274 12.9314 24.8274 14.1417V34.3862H23.3958V14.1784C23.3958 13.7383 23.0021 13.4082 22.6084 13.4815L13.1242 15.0586C12.8021 15.1319 12.5516 15.3886 12.5516 15.7554V34.3862H9.08V31.4522C9.93895 31.1221 10.5832 29.9852 10.5832 28.6649C10.5832 27.0512 9.68842 25.7676 8.54316 25.7676C7.39789 25.7676 6.50316 27.0512 6.50316 28.6649C6.50316 29.9852 7.14737 31.1221 8.00632 31.4522V34.3862H5.68C5.28632 34.3862 5 34.7163 5 35.083V35.3031C5 35.7065 5.32211 35.9999 5.68 35.9999H38.32C38.7137 35.9999 39 35.6698 39 35.3031V35.083C39 34.7163 38.6779 34.3862 38.32 34.3862ZM27.1537 8.53044C27.1537 8.42042 27.2611 8.31039 27.3684 8.31039H29.0147C29.1221 8.31039 29.2295 8.42042 29.2295 8.53044V10.2175C29.2295 10.3275 29.1221 10.4375 29.0147 10.4375H27.3684C27.2611 10.4375 27.1537 10.3275 27.1537 10.2175V8.53044ZM27.1537 13.1148C27.1537 13.0048 27.2611 12.8947 27.3684 12.8947H29.0147C29.1221 12.8947 29.2295 13.0048 29.2295 13.1148V14.7652C29.2295 14.8752 29.1221 14.9852 29.0147 14.9852H27.3684C27.2611 14.9852 27.1537 14.8752 27.1537 14.7652V13.1148ZM27.1537 17.6625C27.1537 17.5524 27.2611 17.4424 27.3684 17.4424H29.0147C29.1221 17.4424 29.2295 17.5524 29.2295 17.6625V19.3495C29.2295 19.4595 29.1221 19.5696 29.0147 19.5696H27.3684C27.2611 19.5696 27.1537 19.4595 27.1537 19.3495V17.6625ZM27.1537 22.2468C27.1537 22.1368 27.2611 22.0268 27.3684 22.0268H29.0147C29.1221 22.0268 29.2295 22.1368 29.2295 22.2468V23.9339C29.2295 24.0439 29.1221 24.1539 29.0147 24.1539H27.3684C27.2611 24.1539 27.1537 24.0439 27.1537 23.9339V22.2468ZM27.1537 26.8312C27.1537 26.7211 27.2611 26.6111 27.3684 26.6111H29.0147C29.1221 26.6111 29.2295 26.7211 29.2295 26.8312V28.5182C29.2295 28.6282 29.1221 28.7383 29.0147 28.7383H27.3684C27.2611 28.7383 27.1537 28.6282 27.1537 28.5182V26.8312ZM27.1537 31.4155C27.1537 31.3055 27.2611 31.1955 27.3684 31.1955H29.0147C29.1221 31.1955 29.2295 31.3055 29.2295 31.4155V33.1026C29.2295 33.2126 29.1221 33.3226 29.0147 33.3226H27.3684C27.2611 33.3226 27.1537 33.2126 27.1537 33.1026V31.4155ZM24.72 10.4375H23.0737C22.9663 10.4375 22.8589 10.3275 22.8589 10.2175V8.53044C22.8589 8.42042 22.9663 8.31039 23.0737 8.31039H24.72C24.8274 8.31039 24.9347 8.42042 24.9347 8.53044V10.2175C24.9347 10.3275 24.8274 10.4375 24.72 10.4375ZM19.0653 17.6625C19.0653 17.5524 19.1726 17.4424 19.28 17.4424H20.9263C21.0337 17.4424 21.1411 17.5524 21.1411 17.6625V19.3495C21.1411 19.4595 21.0337 19.5696 20.9263 19.5696H19.28C19.1726 19.5696 19.0653 19.4595 19.0653 19.3495V17.6625ZM19.0653 22.2468C19.0653 22.1368 19.1726 22.0268 19.28 22.0268H20.9263C21.0337 22.0268 21.1411 22.1368 21.1411 22.2468V23.9339C21.1411 24.0439 21.0337 24.1539 20.9263 24.1539H19.28C19.1726 24.1539 19.0653 24.0439 19.0653 23.9339V22.2468ZM19.0653 26.8312C19.0653 26.7211 19.1726 26.6111 19.28 26.6111H20.9263C21.0337 26.6111 21.1411 26.7211 21.1411 26.8312V28.5182C21.1411 28.6282 21.0337 28.7383 20.9263 28.7383H19.28C19.1726 28.7383 19.0653 28.6282 19.0653 28.5182V26.8312ZM19.0653 31.4155C19.0653 31.3055 19.1726 31.1955 19.28 31.1955H20.9263C21.0337 31.1955 21.1411 31.3055 21.1411 31.4155V33.1026C21.1411 33.2126 21.0337 33.3226 20.9263 33.3226H19.28C19.1726 33.3226 19.0653 33.2126 19.0653 33.1026V31.4155ZM14.7347 17.6625C14.7347 17.5524 14.8421 17.4424 14.9495 17.4424H16.5958C16.7032 17.4424 16.8105 17.5524 16.8105 17.6625V19.3495C16.8105 19.4595 16.7032 19.5696 16.5958 19.5696H14.9495C14.8421 19.5696 14.7347 19.4595 14.7347 19.3495V17.6625ZM14.7347 22.2468C14.7347 22.1368 14.8421 22.0268 14.9495 22.0268H16.5958C16.7032 22.0268 16.8105 22.1368 16.8105 22.2468V23.9339C16.8105 24.0439 16.7032 24.1539 16.5958 24.1539H14.9495C14.8421 24.1539 14.7347 24.0439 14.7347 23.9339V22.2468ZM14.7347 26.8312C14.7347 26.7211 14.8421 26.6111 14.9495 26.6111H16.5958C16.7032 26.6111 16.8105 26.7211 16.8105 26.8312V28.5182C16.8105 28.6282 16.7032 28.7383 16.5958 28.7383H14.9495C14.8421 28.7383 14.7347 28.6282 14.7347 28.5182V26.8312ZM14.7347 31.4155C14.7347 31.3055 14.8421 31.1955 14.9495 31.1955H16.5958C16.7032 31.1955 16.8105 31.3055 16.8105 31.4155V33.1026C16.8105 33.2126 16.7032 33.3226 16.5958 33.3226H14.9495C14.8421 33.3226 14.7347 33.2126 14.7347 33.1026V31.4155Z" fill="white"/>
</g>
</g>
<path d="M53.4895 16.7891H58.3879V30H61.7317V16.7891H66.6301V14H53.4895V16.7891ZM72.4133 30.2344C76.054 30.2344 78.3196 27.7422 78.3196 24.0469C78.3196 20.3281 76.054 17.8438 72.4133 17.8438C68.7727 17.8438 66.5071 20.3281 66.5071 24.0469C66.5071 27.7422 68.7727 30.2344 72.4133 30.2344ZM72.429 27.6562C70.7493 27.6562 69.8899 26.1172 69.8899 24.0234C69.8899 21.9297 70.7493 20.3828 72.429 20.3828C74.0774 20.3828 74.9368 21.9297 74.9368 24.0234C74.9368 26.1172 74.0774 27.6562 72.429 27.6562ZM82.55 30H86.0657L88.1282 22.4531H88.2766L90.3391 30H93.8625L97.1204 18H93.761L91.9329 26.0156H91.8313L89.8625 18H86.5579L84.6204 26.0625H84.511L82.6516 18H79.2844L82.55 30ZM102.224 23.0625C102.232 21.5156 103.154 20.6094 104.497 20.6094C105.833 20.6094 106.638 21.4844 106.63 22.9531V30H109.958V22.3594C109.958 19.5625 108.318 17.8438 105.818 17.8438C104.036 17.8438 102.747 18.7187 102.208 20.1172H102.068V18H98.8958V30H102.224V23.0625ZM111.025 16.7891H115.923V30H119.267V16.7891H124.165V14H111.025V16.7891ZM129.948 30.2344C133.589 30.2344 135.855 27.7422 135.855 24.0469C135.855 20.3281 133.589 17.8438 129.948 17.8438C126.308 17.8438 124.042 20.3281 124.042 24.0469C124.042 27.7422 126.308 30.2344 129.948 30.2344ZM129.964 27.6562C128.284 27.6562 127.425 26.1172 127.425 24.0234C127.425 21.9297 128.284 20.3828 129.964 20.3828C131.613 20.3828 132.472 21.9297 132.472 24.0234C132.472 26.1172 131.613 27.6562 129.964 27.6562ZM140.085 30H143.601L145.663 22.4531H145.812L147.874 30H151.398L154.656 18H151.296L149.468 26.0156H149.366L147.398 18H144.093L142.156 26.0625H142.046L140.187 18H136.82L140.085 30ZM159.759 23.0625C159.767 21.5156 160.689 20.6094 162.032 20.6094C163.368 20.6094 164.173 21.4844 164.165 22.9531V30H167.493V22.3594C167.493 19.5625 165.853 17.8438 163.353 17.8438C161.572 17.8438 160.282 18.7187 159.743 20.1172H159.603V18H156.431V30H159.759V23.0625Z" fill="#D1443B"/>
<defs>
<clipPath id="clip0">
<rect width="100" height="100" fill="white" transform="translate(-12 -6)"/>
</clipPath>
</defs>
</svg>
