<svg width="181" height="125" viewBox="0 0 181 125" fill="none" xmlns="http://www.w3.org/2000/svg">
<path d="M174.613 124C185.347 97.1844 182.1 67.2418 168.256 44.2452L23.3348 64.2955L162.215 35.3746C103.683 -37.5584 -10.2415 10.8172 0.740232 102.9L174.613 124Z" fill="white"/>
<path d="M174.613 124C185.347 97.1844 182.1 67.2418 168.256 44.2452L23.3348 64.2955L162.215 35.3746C103.683 -37.5584 -10.2415 10.8172 0.740232 102.9L174.613 124Z" fill="#3A3335" fill-opacity="0.04"/>
<circle cx="89.5406" cy="88.5" r="36.5" fill="#C6D8D3"/>
<path fill-rule="evenodd" clip-rule="evenodd" d="M74.1013 104H103.98C105.118 103.999 106.04 103.083 106.041 101.953V84.0465C106.039 82.9168 105.118 82.0012 103.98 82H74.1013C72.9637 82.0012 72.0419 82.9168 72.0406 84.0465V101.953C72.0418 103.083 72.9637 103.999 74.1013 104ZM74.1012 101.953V84.0465L103.98 84.0465L103.982 101.953H74.1012Z" fill="white"/>
<path fill-rule="evenodd" clip-rule="evenodd" d="M80.0406 84H99.0406L99.0406 75.5556C99.0406 69.4392 95.0452 65 89.5406 65C84.0361 65 80.0406 69.4392 80.0406 75.5556V84ZM96.9295 81.8889H82.1518L82.1518 75.5556C82.1518 70.5837 85.1901 67.1111 89.5407 67.1111C93.8912 67.1111 96.9295 70.5836 96.9295 75.5556V81.8889Z" fill="white"/>
<circle cx="89.0406" cy="93" r="2" fill="white"/>
</svg>
