<svg width="67" height="61" viewBox="0 0 67 61" fill="none" xmlns="http://www.w3.org/2000/svg">
<path d="M60.1147 21.2046H53.5364V6.36838C53.5364 2.86927 50.6671 0 47.168 0H6.36838C2.86927 0 0 2.86927 0 6.36838V53.7464C0 57.2455 2.86927 60.1147 6.36838 60.1147H57.3854C62.4241 60.1147 66.4831 56.0558 66.4831 51.017V27.573C66.4831 24.0739 63.6138 21.2046 60.1147 21.2046ZM6.36838 54.9361C5.73854 54.9361 5.24867 54.4462 5.24867 53.8163V6.36838C5.24867 5.73854 5.73854 5.24867 6.36838 5.24867H47.168C47.7979 5.24867 48.2877 5.73854 48.2877 6.36838V51.087C48.2877 52.4867 48.5677 53.7464 49.1275 54.9361H6.36838ZM61.2344 51.087C61.2344 53.1865 59.4849 54.9361 57.3854 54.9361C55.286 54.9361 53.5364 53.1865 53.5364 51.087V26.4533H60.1147C60.7446 26.4533 61.2344 26.9432 61.2344 27.573V51.087Z" fill="#2AC084"/>
<path d="M13.3657 27.2916H20.9938C22.4634 27.2916 23.5831 26.1019 23.5831 24.7022V13.855C23.5831 12.3853 22.3934 11.2656 20.9938 11.2656H13.3657C11.8961 11.2656 10.7764 12.4553 10.7764 13.855V24.6322C10.7064 26.1019 11.8961 27.2916 13.3657 27.2916Z" fill="#2AC084"/>
<path d="M40.1699 32.8906H13.3667C11.8971 32.8906 10.7773 34.0803 10.7773 35.48C10.7773 36.8796 11.967 38.0693 13.3667 38.0693H40.1699C41.6395 38.0693 42.7592 36.8796 42.7592 35.48C42.7592 34.0803 41.6395 32.8906 40.1699 32.8906Z" fill="#2AC084"/>
<path d="M40.1701 22.043H30.7925C29.3228 22.043 28.2031 23.2327 28.2031 24.6323C28.2031 26.032 29.3928 27.2217 30.7925 27.2217H40.1701C41.6397 27.2217 42.7594 26.032 42.7594 24.6323C42.7594 23.2327 41.6397 22.043 40.1701 22.043Z" fill="#2AC084"/>
<path d="M40.1701 11.2656H30.7925C29.3228 11.2656 28.2031 12.4553 28.2031 13.855C28.2031 15.2546 29.3928 16.4443 30.7925 16.4443H40.1701C41.6397 16.4443 42.7594 15.2546 42.7594 13.855C42.7594 12.4553 41.6397 11.2656 40.1701 11.2656Z" fill="#2AC084"/>
<path d="M40.1699 43.668H13.3667C11.8971 43.668 10.7773 44.8577 10.7773 46.2573C10.7773 47.7269 11.967 48.8467 13.3667 48.8467H40.1699C41.6395 48.8467 42.7592 47.657 42.7592 46.2573C42.7592 44.8577 41.6395 43.668 40.1699 43.668Z" fill="#2AC084"/>
</svg>
