<svg width="67" height="66" viewBox="0 0 67 66" fill="none" xmlns="http://www.w3.org/2000/svg">
<path d="M42.3648 16.0142L42.4282 16.2329C42.503 16.46 42.5294 16.7002 42.5058 16.9382L36.1582 23.2858L37.8015 24.9291L44.1491 18.5815C44.4052 18.5633 44.6625 18.5872 44.9109 18.652L45.1224 18.7014L49.0439 14.1593L46.928 12.0435L42.3648 16.0142Z" fill="#2AC084"/>
<path d="M20.0356 36.5804C19.8336 36.7816 19.6734 37.0206 19.5641 37.2839C19.4547 37.5471 19.3984 37.8294 19.3984 38.1144C19.3984 38.3995 19.4547 38.6817 19.5641 38.9449C19.6734 39.2082 19.8336 39.4472 20.0356 39.6484L21.4462 41.059C21.8534 41.4651 22.405 41.6932 22.9802 41.6932C23.5553 41.6932 24.107 41.4651 24.5142 41.059L33.5419 32.0313L29.0492 27.5386L20.0356 36.5804Z" fill="#2AC084"/>
<path d="M31.134 21.4043L31.4023 20.7813C31.7074 20.0731 31.869 19.3115 31.8779 18.5405C31.8545 16.9142 31.1981 15.3608 30.0478 14.2105C28.8978 13.0604 27.3448 12.4041 25.7189 12.3805C25.1916 12.3878 24.6689 12.4645 24.1641 12.6075L27.3061 15.7495C27.6012 16.0313 27.8365 16.3698 27.998 16.7447M31.134 21.4043L27.998 16.7447M31.134 21.4043L31.6137 21.884L47.391 37.6613L47.3987 37.669L47.4066 37.6766C47.5766 37.8393 47.7119 38.0348 47.8044 38.2513C47.8968 38.4678 47.9445 38.7007 47.9445 38.9361C47.9445 39.1714 47.8968 39.4044 47.8044 39.6208L48.724 40.0136L47.8044 39.6208C47.7119 39.8373 47.5766 40.0328 47.4066 40.1956L47.3908 40.2106L47.3757 40.2264C47.213 40.3964 47.0175 40.5318 46.801 40.6242L47.1937 41.5438L46.801 40.6242C46.5845 40.7166 46.3516 40.7643 46.1162 40.7643C45.8809 40.7643 45.6479 40.7166 45.4315 40.6242C45.215 40.5318 45.0195 40.3964 44.8567 40.2264L44.8492 40.2185L44.8415 40.2108L29.0641 24.4335L28.5844 23.9537L27.9612 24.2222C27.2532 24.5274 26.4917 24.689 25.7208 24.6977C24.0944 24.6744 22.541 24.018 21.3907 22.8676C20.2408 21.7177 19.5844 20.1651 19.5606 18.5394C19.5687 18.0121 19.6456 17.4895 19.7884 16.9846L22.9308 20.1271C23.2134 20.4212 23.5522 20.6556 23.9272 20.8163C24.3063 20.9787 24.7144 21.0625 25.1268 21.0625C25.5392 21.0625 25.9473 20.9787 26.3264 20.8163C26.6975 20.6572 27.0331 20.4261 27.3139 20.1363M31.134 21.4043L27.3139 20.1363M27.998 16.7447C28.1615 17.1243 28.2459 17.5333 28.2459 17.9466C28.2459 18.36 28.1615 18.7689 27.998 19.1485C27.838 19.5201 27.6054 19.8559 27.3139 20.1363M27.998 16.7447L27.3139 20.1363" stroke="#2AC084" stroke-width="2"/>
<path d="M56.6896 0.631348H10.9057C8.17135 0.631348 5.54895 1.71758 3.61544 3.65109C1.68194 5.58459 0.595703 8.20699 0.595703 10.9414V42.0114C0.595703 44.7458 1.68194 47.3682 3.61544 49.3017C5.54895 51.2352 8.17135 52.3214 10.9057 52.3214H23.3514L30.7157 63.6846C31.0495 64.2013 31.5075 64.6263 32.0478 64.9205C32.5881 65.2147 33.1935 65.3688 33.8087 65.3688C34.424 65.3688 35.0294 65.2147 35.5697 64.9205C36.11 64.6263 36.5679 64.2013 36.9018 63.6846L44.2661 52.3288H56.6896C59.424 52.3288 62.0464 51.2426 63.9799 49.3091C65.9135 47.3756 66.9997 44.7532 66.9997 42.0188V10.9414C66.9997 8.20699 65.9135 5.58459 63.9799 3.65109C62.0464 1.71758 59.424 0.631348 56.6896 0.631348ZM61.1082 42.004C61.1082 43.1759 60.6427 44.2998 59.8141 45.1285C58.9854 45.9571 57.8615 46.4226 56.6896 46.4226H42.6312C42.139 46.4227 41.6546 46.546 41.2224 46.7814C40.7902 47.0168 40.4238 47.3568 40.1568 47.7703L33.794 57.609L27.4312 47.7703C27.1634 47.3582 26.7966 47.0197 26.3644 46.7856C25.9323 46.5515 25.4484 46.4292 24.9568 46.43H10.9057C9.73385 46.43 8.60997 45.9645 7.78132 45.1358C6.95268 44.3072 6.48715 43.1833 6.48715 42.0114V10.9414C6.48715 9.7695 6.95268 8.64562 7.78132 7.81697C8.60997 6.98832 9.73385 6.5228 10.9057 6.5228H56.6896C57.8615 6.5228 58.9854 6.98832 59.8141 7.81697C60.6427 8.64562 61.1082 9.7695 61.1082 10.9414V42.004Z" fill="#2AC084"/>
</svg>
