<svg width="80" height="80" viewBox="0 0 80 80" fill="none" xmlns="http://www.w3.org/2000/svg">
<path d="M68.1017 25.2681C68.0035 24.4551 67.6094 23.7066 66.9946 23.1656C66.3798 22.6246 65.5873 22.3288 64.7684 22.3348H54.5017V21.0681C54.4403 17.2812 52.8791 13.6733 50.1607 11.0362C47.4423 8.39901 43.7888 6.94796 40.0017 7.00143C36.2147 6.94796 32.5612 8.39901 29.8428 11.0362C27.1244 13.6733 25.5632 17.2812 25.5017 21.0681V22.3348H15.2017C14.3828 22.3288 13.5904 22.6246 12.9756 23.1656C12.3608 23.7066 11.9667 24.4551 11.8684 25.2681L6.30174 69.2348C6.23975 69.7074 6.27987 70.1879 6.41939 70.6438C6.55892 71.0996 6.7946 71.5203 7.11054 71.8773C7.42647 72.2343 7.81532 72.5194 8.25082 72.7133C8.68632 72.9072 9.15836 73.0055 9.63507 73.0014H70.4017C70.8784 73.0055 71.3505 72.9072 71.786 72.7133C72.2215 72.5194 72.6103 72.2343 72.9263 71.8773C73.2422 71.5203 73.4779 71.0996 73.6174 70.6438C73.7569 70.1879 73.7971 69.7074 73.7351 69.2348L68.1017 25.2681ZM32.1684 21.0681C32.1684 18.9906 32.9937 16.9981 34.4627 15.5291C35.9318 14.0601 37.9242 13.2348 40.0017 13.2348C42.0793 13.2348 44.0717 14.0601 45.5407 15.5291C47.0098 16.9981 47.8351 18.9906 47.8351 21.0681V22.3348H32.1684V21.0681ZM13.3351 66.3348L18.1351 29.0014H25.5017V32.7348C25.5017 33.6188 25.8529 34.4667 26.478 35.0918C27.1032 35.7169 27.951 36.0681 28.8351 36.0681C29.7191 36.0681 30.567 35.7169 31.1921 35.0918C31.8172 34.4667 32.1684 33.6188 32.1684 32.7348V29.0014H47.8351V32.7348C47.8351 33.6188 48.1863 34.4667 48.8114 35.0918C49.4365 35.7169 50.2844 36.0681 51.1684 36.0681C52.0525 36.0681 52.9003 35.7169 53.5254 35.0918C54.1505 34.4667 54.5017 33.6188 54.5017 32.7348V29.0014H61.8684L66.6684 66.3348H13.3351Z" fill="#2AC084"/>
</svg>
