<svg width="274" height="190" viewBox="0 0 274 190" fill="none" xmlns="http://www.w3.org/2000/svg">
<circle cx="229.5" cy="23.5" r="3.5" transform="rotate(90 229.5 23.5)" fill="#F3F3F3"/>
<circle cx="229.5" cy="44.5" r="3.5" transform="rotate(90 229.5 44.5)" fill="#F3F3F3"/>
<circle cx="270.5" cy="64.5" r="3.5" transform="rotate(90 270.5 64.5)" fill="#D1443B"/>
<circle cx="229.5" cy="64.5" r="3.5" transform="rotate(90 229.5 64.5)" fill="#F3F3F3"/>
<circle cx="270.5" cy="83.5" r="3.5" transform="rotate(90 270.5 83.5)" fill="#F3F3F3"/>
<circle cx="229.5" cy="83.5" r="3.5" transform="rotate(90 229.5 83.5)" fill="#3F3D56"/>
<circle cx="229.5" cy="145.5" r="3.5" transform="rotate(90 229.5 145.5)" fill="#F3F3F3"/>
<circle cx="229.5" cy="166.5" r="3.5" transform="rotate(90 229.5 166.5)" fill="#F3F3F3"/>
<circle cx="208.5" cy="166.5" r="3.5" transform="rotate(90 208.5 166.5)" fill="#F3F3F3"/>
<circle cx="188.5" cy="166.5" r="3.5" transform="rotate(90 188.5 166.5)" fill="#D1443B"/>
<circle cx="167.5" cy="166.5" r="3.5" transform="rotate(90 167.5 166.5)" fill="#F3F3F3"/>
<circle cx="147.5" cy="166.5" r="3.5" transform="rotate(90 147.5 166.5)" fill="#F3F3F3"/>
<circle cx="270.5" cy="186.5" r="3.5" transform="rotate(90 270.5 186.5)" fill="#F3F3F3"/>
<circle cx="249.5" cy="186.5" r="3.5" transform="rotate(90 249.5 186.5)" fill="#F3F3F3"/>
<circle cx="229.5" cy="186.5" r="3.5" transform="rotate(90 229.5 186.5)" fill="#F3F3F3"/>
<circle cx="208.5" cy="186.5" r="3.5" transform="rotate(90 208.5 186.5)" fill="#F3F3F3"/>
<circle cx="188.5" cy="186.5" r="3.5" transform="rotate(90 188.5 186.5)" fill="#F3F3F3"/>
<ellipse cx="270.664" cy="104.607" rx="3.20734" ry="3.20225" transform="rotate(0.232622 270.664 104.607)" fill="#F3F3F3"/>
<ellipse cx="249.281" cy="104.607" rx="3.20734" ry="3.20225" transform="rotate(0.232622 249.281 104.607)" fill="#F3F3F3"/>
<circle cx="229.5" cy="104.5" r="3.5" transform="rotate(90 229.5 104.5)" fill="#F3F3F3"/>
<circle cx="229.5" cy="125.5" r="3.5" transform="rotate(90 229.5 125.5)" fill="#F3F3F3"/>
<circle cx="23.5" cy="3.5" r="3.5" transform="rotate(90 23.5 3.5)" fill="#F3F3F3"/>
<circle cx="3.5" cy="3.5" r="3.5" transform="rotate(90 3.5 3.5)" fill="#F3F3F3"/>
<circle cx="105.5" cy="23.5" r="3.5" transform="rotate(90 105.5 23.5)" fill="#F3F3F3"/>
<circle cx="85.5" cy="23.5" r="3.5" transform="rotate(90 85.5 23.5)" fill="#E6E6E6"/>
<circle cx="64.5" cy="23.5" r="3.5" transform="rotate(90 64.5 23.5)" fill="#F3F3F3"/>
<circle cx="43.5" cy="23.5" r="3.5" transform="rotate(90 43.5 23.5)" fill="#F3F3F3"/>
<circle cx="23.5" cy="23.5" r="3.5" transform="rotate(90 23.5 23.5)" fill="#3F3D56"/>
<circle cx="3.5" cy="23.5" r="3.5" transform="rotate(90 3.5 23.5)" fill="#F3F3F3"/>
<circle cx="64.5" cy="44.5" r="3.5" transform="rotate(90 64.5 44.5)" fill="#F3F3F3"/>
<circle cx="43.5" cy="44.5" r="3.5" transform="rotate(90 43.5 44.5)" fill="#F3F3F3"/>
<circle cx="64.5" cy="64.5" r="3.5" transform="rotate(90 64.5 64.5)" fill="#F3F3F3"/>
<circle cx="43.5" cy="64.5" r="3.5" transform="rotate(90 43.5 64.5)" fill="#F3F3F3"/>
<circle cx="64.5" cy="83.5" r="3.5" transform="rotate(90 64.5 83.5)" fill="#F3F3F3"/>
<circle cx="43.5" cy="83.5" r="3.5" transform="rotate(90 43.5 83.5)" fill="#F3F3F3"/>
<circle cx="64.5" cy="145.5" r="3.5" transform="rotate(90 64.5 145.5)" fill="#F3F3F3"/>
<circle cx="23.5" cy="145.5" r="3.5" transform="rotate(90 23.5 145.5)" fill="#F3F3F3"/>
<ellipse cx="64.3252" cy="104.607" rx="3.20734" ry="3.20225" transform="rotate(0.232622 64.3252 104.607)" fill="#F3F3F3"/>
<circle cx="23.5" cy="104.5" r="3.5" transform="rotate(90 23.5 104.5)" fill="#D1443B"/>
<circle cx="3.5" cy="104.5" r="3.5" transform="rotate(90 3.5 104.5)" fill="#F3F3F3"/>
<circle cx="64.5" cy="125.5" r="3.5" transform="rotate(90 64.5 125.5)" fill="#E6E6E6"/>
<circle cx="23.5" cy="125.5" r="3.5" transform="rotate(90 23.5 125.5)" fill="#F3F3F3"/>
<circle cx="3.5" cy="125.5" r="3.5" transform="rotate(90 3.5 125.5)" fill="#F3F3F3"/>
<path d="M84.7892 116.852C91.7359 119.81 98.7678 115.704 101.65 113.646C120.968 124.299 145.21 118.051 157.022 99.3734C168.834 80.6959 164.148 56.0212 146.319 43.0132C128.49 30.0052 103.657 33.1434 89.5981 50.1812C75.5389 67.219 77.0944 92.2893 93.1512 107.445L84.7892 116.852Z" fill="#F3F3F3"/>
<path d="M98.9583 69.3924C107.416 69.303 115.873 69.1494 124.331 69.0327C127.15 68.9938 129.97 68.9597 132.79 68.9304C135.219 68.9047 135.225 65.0679 132.79 65.0936C124.332 65.1831 115.875 65.3366 107.417 65.4533C104.598 65.4922 101.778 65.5263 98.9583 65.5556C96.5287 65.5813 96.5225 69.4182 98.9583 69.3924Z" fill="#E6E6E6"/>
<path d="M98.9826 77.9906L133.622 77.6309L143.474 77.5286C145.936 77.503 145.942 73.6661 143.474 73.6918L108.834 74.0515L98.9826 74.1538C96.5207 74.1793 96.5144 78.0162 98.9826 77.9906Z" fill="#E6E6E6"/>
<path d="M98.9826 87.6634L133.622 87.3037L143.474 87.2014C145.936 87.1759 145.942 83.339 143.474 83.3646L108.834 83.7243L98.9826 83.8266C96.5207 83.8522 96.5144 87.6891 98.9826 87.6634Z" fill="#E6E6E6"/>
<path d="M216 108.069C215.993 89.1868 203.406 72.6409 185.258 67.6578C167.111 62.6747 147.884 70.4849 138.299 86.7331C128.714 102.981 131.138 123.655 144.22 137.227C157.301 150.798 177.809 153.916 194.308 144.841C197.197 146.903 204.242 151.016 211.202 148.053L202.824 138.628C211.243 130.712 216.013 119.647 216 108.069Z" fill="#C6D8D3"/>
<path d="M152.501 101.635C160.959 101.546 169.416 101.392 177.874 101.276C180.693 101.237 183.513 101.203 186.333 101.173C188.762 101.148 188.768 97.3108 186.333 97.3366C177.875 97.426 169.418 97.5796 160.96 97.6963C158.141 97.7352 155.321 97.7693 152.501 97.7986C150.072 97.8242 150.065 101.661 152.501 101.635Z" fill="white"/>
<path d="M152.526 110.233L187.165 109.874L197.017 109.771C199.479 109.746 199.485 105.909 197.017 105.935L162.377 106.294L152.526 106.397C150.064 106.422 150.057 110.259 152.526 110.234V110.233Z" fill="white"/>
<path d="M152.526 119.906L187.165 119.547L197.017 119.444C199.479 119.419 199.485 115.582 197.017 115.608L162.377 115.967L152.526 116.07C150.064 116.095 150.057 119.932 152.526 119.906Z" fill="white"/>
</svg>
